<svg width="16" height="16" viewBox="0 0 16 16" fill="none" xmlns="http://www.w3.org/2000/svg">
<path d="M15.8299 8.18008C15.8299 7.65342 15.7833 7.15341 15.7033 6.66675H8.16992V9.67342H12.4833C12.2899 10.6601 11.7233 11.4934 10.8833 12.0601V14.0601H13.4566C14.9633 12.6667 15.8299 10.6134 15.8299 8.18008Z" fill="#4285F4"/>
<path d="M8.17003 15.9999C10.33 15.9999 12.1367 15.2799 13.4567 14.0599L10.8834 12.0599C10.1634 12.5399 9.25003 12.8333 8.17003 12.8333C6.08336 12.8333 4.3167 11.4266 3.68336 9.52661H1.03003V11.5866C2.34336 14.1999 5.04336 15.9999 8.17003 15.9999Z" fill="#34A853"/>
<path d="M3.68326 9.52666C3.51659 9.04666 3.42992 8.53333 3.42992 7.99999C3.42992 7.46666 3.52326 6.95333 3.68326 6.47333V4.41333H1.02992C0.483255 5.49333 0.169922 6.70666 0.169922 7.99999C0.169922 9.29333 0.483255 10.5067 1.02992 11.5867L3.68326 9.52666Z" fill="#FBBC05"/>
<path d="M8.17003 3.16667C9.35003 3.16667 10.4034 3.57334 11.2367 4.36667L13.5167 2.08667C12.1367 0.793334 10.33 0 8.17003 0C5.04336 0 2.34336 1.8 1.03003 4.41334L3.68336 6.47334C4.3167 4.57334 6.08336 3.16667 8.17003 3.16667Z" fill="#EA4335"/>
</svg>
